<svg id="fsleutel" data-name="fsleutel" xmlns="http://www.w3.org/2000/svg" viewBox="0 0 122.78 300.14">
  <title>fsleutel</title>
  <path d="M237.84,361a1.51,1.51,0,0,1-.46-.34l-.23-.27a3.2,3.2,0,0,1-.32-.5,7.2,7.2,0,0,1-.46-1,14,14,0,0,1-.58-1.92,32,32,0,0,1-.62-3.82c-.15-1.27-.24-2.53-.3-3.8-.05-.61-.05-1.3,0-2a17.61,17.61,0,0,1,.2-2,20.51,20.51,0,0,1,2.8-7.66,27.42,27.42,0,0,1,5.14-6.24,42.81,42.81,0,0,1,13.59-8.19A55.56,55.56,0,0,1,272,319.79a43.66,43.66,0,0,1,16.23,1.62,40.16,40.16,0,0,1,14.5,8.19,46,46,0,0,1,10.21,13.07,49.25,49.25,0,0,1,5.16,15.76,43.32,43.32,0,0,1-.91,17,41.45,41.45,0,0,1-7.67,15.38,47.34,47.34,0,0,1-12.84,11.14,51.85,51.85,0,0,1-7.5,3.73,60.13,60.13,0,0,1-7.85,2.6,70.28,70.28,0,0,1-16.1,2.25,80.47,80.47,0,0,1-16.14-1.15,65.42,65.42,0,0,1-15.63-4.8A63.05,63.05,0,0,1,208,384.23,62,62,0,0,1,200.11,370a63,63,0,0,1-4-15.79,64.75,64.75,0,0,1-.39-8.12,44.36,44.36,0,0,1,1-8.35A47.39,47.39,0,0,1,203,322.5a77.19,77.19,0,0,1,9.79-12.39c7.17-7.47,15.16-13.66,23-19.82l11.73-9.11c3.85-3.06,7.62-6.18,11.26-9.41,7.22-6.46,13.94-13.47,18.56-21.59a47.19,47.19,0,0,0,3-6.25,43.62,43.62,0,0,0,1.94-6.59,37.81,37.81,0,0,0,.81-6.79c.1-2.29,0-4.77-.08-7.14a89.32,89.32,0,0,0-1.83-14.17A57.14,57.14,0,0,0,276.72,196a30.58,30.58,0,0,0-3.51-5.63,14,14,0,0,0-4.42-3.82,7.25,7.25,0,0,0-2.32-.73,6.43,6.43,0,0,0-1.26,0,11.32,11.32,0,0,0-1.45.13,11.63,11.63,0,0,0-2.68.73,10.76,10.76,0,0,0-2.33,1.38c-2.9,2.25-4.81,6.28-5.89,10.61a57.31,57.31,0,0,0-1.49,13.78c0,.57,0,1.22,0,1.73s.05,1,.13,1.61c.12,1.19.24,2.37.4,3.6.28,2.42.61,4.87.93,7.32.67,4.89,1.33,9.79,2.06,14.69,1.43,9.79,2.85,19.6,4.38,29.39,6.05,39.18,12.8,78.26,18.46,117.53L279.88,403l1.95,14.77c.63,4.93,1.28,9.86,1.83,14.83l.39,3.77.17,1.95.09,1,.06,1.17a32.06,32.06,0,0,1-.12,4.42c-.14,1.43-.33,2.84-.59,4.25a38.71,38.71,0,0,1-6.77,15.94,32.1,32.1,0,0,1-6.3,6.4,31.76,31.76,0,0,1-7.78,4.35,39,39,0,0,1-8.36,2.18,54.51,54.51,0,0,1-24.5-2.36,32.24,32.24,0,0,1-14.15-9.75,29.37,29.37,0,0,1-6.56-16,19.24,19.24,0,0,1,1.26-9.24,17.1,17.1,0,0,1,5.89-7.39,21.4,21.4,0,0,1,8.18-3.57,26,26,0,0,1,8.57-.33,18.53,18.53,0,0,1,8.37,3.13,15.3,15.3,0,0,1,5.45,7.26,21.3,21.3,0,0,1,1.16,8.41,19.56,19.56,0,0,1-2.23,8.12,17,17,0,0,1-5.63,6.23,16.48,16.48,0,0,1-7.8,2.7,21.13,21.13,0,0,1-4-.07,33.37,33.37,0,0,1-3.84-.62,25,25,0,0,1-7.27-2.78l.91-1.53A26.09,26.09,0,0,0,232.05,462a12.91,12.91,0,0,0,5.91-2.63,13.3,13.3,0,0,0,3.82-5.06,14.75,14.75,0,0,0,1.2-6.22,16.2,16.2,0,0,0-1.32-6.16,9.54,9.54,0,0,0-3.65-4.21,12.05,12.05,0,0,0-5.56-1.62c-4.19-.28-8.54.87-11.4,3.29a9.9,9.9,0,0,0-3,4.26,11.12,11.12,0,0,0-.37,5.39,20.63,20.63,0,0,0,5.15,10.89,21.06,21.06,0,0,0,4.7,3.84,25.94,25.94,0,0,0,5.68,2.59,44.2,44.2,0,0,0,19.57,1.13,27.85,27.85,0,0,0,5.94-1.78,22.41,22.41,0,0,0,5.08-3,21,21,0,0,0,4-4.26,27.49,27.49,0,0,0,4.43-11.34,29.8,29.8,0,0,0,.36-3.12,20.2,20.2,0,0,0,0-3l-.05-.68-.1-.87-.19-1.75-.46-3.62-2-14.66-2.08-14.69-2-14.72c-5.43-39.26-10.14-78.65-15.2-118l-3.81-29.52-1.85-14.79c-.3-2.48-.6-4.94-.86-7.44-.14-1.24-.26-2.52-.37-3.8-.07-.6-.09-1.4-.13-2.1s0-1.32,0-2a64.66,64.66,0,0,1,1.94-15.68,34,34,0,0,1,3-7.77,21.39,21.39,0,0,1,5.75-6.87,18.27,18.27,0,0,1,4.08-2.33,19.43,19.43,0,0,1,4.49-1.17,19.09,19.09,0,0,1,2.25-.17,13,13,0,0,1,2.45.11,14.45,14.45,0,0,1,4.72,1.52,21.46,21.46,0,0,1,6.74,5.85,38.18,38.18,0,0,1,4.26,7A67.71,67.71,0,0,1,288,207.78a95.51,95.51,0,0,1,1.91,15.3c.11,2.58.17,5.06.06,7.73a46.2,46.2,0,0,1-1,7.94,53.13,53.13,0,0,1-5.67,14.81c-5.17,9.2-12.36,16.72-19.82,23.5-3.75,3.39-7.61,6.6-11.47,9.76l-11.56,9.38c-7.66,6.21-15.11,12.59-21.42,19.68s-11.2,15.13-12.52,23.68a33.9,33.9,0,0,0-.41,6.44,51.66,51.66,0,0,0,4.56,19.51,53,53,0,0,0,16.5,20.57,55.72,55.72,0,0,0,24.22,10.41,67.24,67.24,0,0,0,26.78-.68c8.58-2.06,16.54-6.27,21.9-12.67A31,31,0,0,0,306,372.31a32,32,0,0,0,1.17-12.48,40.18,40.18,0,0,0-3.52-12.54,35.9,35.9,0,0,0-7.4-10.69,32.81,32.81,0,0,0-23.9-9.23,51.38,51.38,0,0,0-13.72,1.95,37.1,37.1,0,0,0-12.35,6c-3.61,2.74-6.62,6.36-7.73,10.69a15.4,15.4,0,0,0-.34,1.64c-.06.55-.13,1.1-.16,1.72-.09,1.22-.15,2.43-.15,3.64a28.19,28.19,0,0,0,.14,3.57,14.89,14.89,0,0,0,.28,1.69,6.69,6.69,0,0,0,.22.75,2.87,2.87,0,0,0,.14.3l.06.11s.08.06-.11-.05Z" transform="translate(-195.76 -178.35)"/>
</svg>
